<svg xmlns="http://www.w3.org/2000/svg" viewBox="0 0 872.92 223.09"><defs><style>.cls-1{isolation:isolate;}.cls-2{fill:#d2e1c8;}.cls-3,.cls-4{fill:#fff;}.cls-4{stroke:#d2e1c8;stroke-miterlimit:10;}</style></defs><g id="Calque_2" data-name="Calque 2"><g id="Capa_1" data-name="Capa 1"><g class="cls-1"><path class="cls-2" d="M386.51,137.68a25.1,25.1,0,0,1-4,4,8.78,8.78,0,0,1-5.44,1.47A11.66,11.66,0,0,1,371,141.5l-6.1-3.59a45.2,45.2,0,0,0-7.93-3.6,34.1,34.1,0,0,0-11.31-1.62,31.6,31.6,0,0,0-14.46,3.09,26.64,26.64,0,0,0-10.06,8.81,40.1,40.1,0,0,0-5.88,14,84.05,84.05,0,0,0-1.91,18.73q0,21.89,8.45,33.63t23.27,11.75q7.94,0,12.56-2a37.8,37.8,0,0,0,7.86-4.41l5.95-4.48a11,11,0,0,1,6.83-2,9.41,9.41,0,0,1,8.22,4l13.22,16.3a72.1,72.1,0,0,1-14.83,13.15A74.72,74.72,0,0,1,369,251.14a81.74,81.74,0,0,1-16.38,4,119.5,119.5,0,0,1-16,1.11,68.77,68.77,0,0,1-26.66-5.29,65.29,65.29,0,0,1-22.32-15.35,73.28,73.28,0,0,1-15.28-24.75q-5.65-14.69-5.65-33.48a94.07,94.07,0,0,1,4.92-30.77,69.72,69.72,0,0,1,14.54-24.82,67.5,67.5,0,0,1,23.79-16.52q14.18-6,32.82-6,17.92,0,31.43,5.72a75.28,75.28,0,0,1,24.38,16.75Z" transform="translate(-17.62 -33.12)"/><path class="cls-2" d="M524.56,253.86q-6.46,0-9.76-1.77t-5.51-7.34l-3.23-8.37q-5.73,4.85-11,8.52a69.89,69.89,0,0,1-10.94,6.24,54.59,54.59,0,0,1-12,3.82,74.34,74.34,0,0,1-14.17,1.25,61.86,61.86,0,0,1-18.95-2.73,39.52,39.52,0,0,1-14.47-8,35.44,35.44,0,0,1-9.18-13.19,47.74,47.74,0,0,1-3.23-18.19,38.11,38.11,0,0,1,4.12-16.65q4.11-8.55,14.24-15.55t27.32-11.71q17.17-4.72,43.32-4.72v-6.52q0-13.48-5.5-19.49t-15.64-6a41.32,41.32,0,0,0-13.22,1.76,58.6,58.6,0,0,0-9.18,4c-2.7,1.47-5.31,2.79-7.86,4a21.66,21.66,0,0,1-9.1,1.76,13.74,13.74,0,0,1-8-2.28,16.83,16.83,0,0,1-5.21-5.65l-8.23-14.25a92.54,92.54,0,0,1,30.62-18.13,107.24,107.24,0,0,1,36.06-5.95,65.85,65.85,0,0,1,24.89,4.48,53.49,53.49,0,0,1,18.8,12.48,54.76,54.76,0,0,1,11.83,19,68.37,68.37,0,0,1,4.11,24.09v95.17ZM472.28,226.1A36.09,36.09,0,0,0,487.7,223a46.74,46.74,0,0,0,13.36-10V192.17A117.38,117.38,0,0,0,478.59,194a54,54,0,0,0-13.95,4.45q-5.14,2.65-7.12,6.07a14.48,14.48,0,0,0-2,7.41q0,7.85,4.25,11T472.28,226.1Z" transform="translate(-17.62 -33.12)"/><path class="cls-2" d="M624.72,34V253.86H579.19V34Z" transform="translate(-17.62 -33.12)"/><path class="cls-2" d="M713.72,59.85a24.16,24.16,0,0,1-2.2,10.2,26.65,26.65,0,0,1-6,8.37,29.35,29.35,0,0,1-8.88,5.73,27.6,27.6,0,0,1-10.8,2.13,25.59,25.59,0,0,1-10.42-2.13,29.4,29.4,0,0,1-8.6-5.73,26.34,26.34,0,0,1-5.87-8.37,24.73,24.73,0,0,1-2.13-10.2,25.64,25.64,0,0,1,2.13-10.43,27.21,27.21,0,0,1,5.87-8.52,27.55,27.55,0,0,1,8.6-5.73,26.39,26.39,0,0,1,10.42-2.05,28.47,28.47,0,0,1,10.8,2.05,27.67,27.67,0,0,1,14.91,14.25A25,25,0,0,1,713.72,59.85Zm-5.29,41.71v152.3H662.9V101.56Z" transform="translate(-17.62 -33.12)"/><path class="cls-2" d="M745.14,253.86V34h45.53v83.71A69.55,69.55,0,0,1,810,104.27q10.78-5.07,25.33-5.06a48,48,0,0,1,22,5.14,49.5,49.5,0,0,1,17.48,15.05,76.32,76.32,0,0,1,11.53,24.31,117.36,117.36,0,0,1,4.18,32.75,101.24,101.24,0,0,1-4.77,31.72,79.69,79.69,0,0,1-13.37,25.26,61.39,61.39,0,0,1-20.56,16.74,58.06,58.06,0,0,1-26.51,6,50.73,50.73,0,0,1-12.11-1.33,41.4,41.4,0,0,1-9.84-3.74,42.53,42.53,0,0,1-8.23-5.8,93.6,93.6,0,0,1-7.27-7.35l-1.61,7.64q-1,4.71-3.75,6.46a12.84,12.84,0,0,1-7.12,1.77Zm74.32-120.43a39.11,39.11,0,0,0-9,.95,33,33,0,0,0-7.49,2.72,27.92,27.92,0,0,0-6.39,4.48,66.16,66.16,0,0,0-5.88,6.24v64.62a28.72,28.72,0,0,0,11.16,8,35.43,35.43,0,0,0,12.64,2.28,26.79,26.79,0,0,0,11.6-2.5,23.68,23.68,0,0,0,9.18-8,42.78,42.78,0,0,0,6.09-14.32,89.59,89.59,0,0,0,2.2-21.44,98.3,98.3,0,0,0-1.76-20.27,41.56,41.56,0,0,0-4.92-13.29,19,19,0,0,0-7.56-7.27A21.69,21.69,0,0,0,819.46,133.43Z" transform="translate(-17.62 -33.12)"/></g><path class="cls-2" d="M243.94,117.73c-9.3-17.2-25.7-27.7-44-28.1h-2.3c-18.3.4-34.7,10.9-44,28.1a61,61,0,0,0-.7,56.5l37.8,74.5a.1.1,0,0,0,.1.1,9.06,9.06,0,0,0,8,5,9.18,9.18,0,0,0,8-5,.1.1,0,0,1,.1-.1l37.8-74.5A61.59,61.59,0,0,0,243.94,117.73Z" transform="translate(-17.62 -33.12)"/><g class="cls-1"><path class="cls-2" d="M67.26,216.55h79.31V256.2H17.62v-214H67.26Z" transform="translate(-17.62 -33.12)"/></g><g class="cls-1"><path class="cls-3" d="M198.9,120.71a39.14,39.14,0,0,1,14,2.41A30.69,30.69,0,0,1,223.75,130a31.09,31.09,0,0,1,7,10.91,39.33,39.33,0,0,1,2.51,14.42,40.14,40.14,0,0,1-2.51,14.56,31.39,31.39,0,0,1-7,11,30.83,30.83,0,0,1-10.85,7,38.5,38.5,0,0,1-14,2.44,39,39,0,0,1-14.1-2.44,31.48,31.48,0,0,1-10.94-7,30.85,30.85,0,0,1-7.1-11,40.14,40.14,0,0,1-2.5-14.56,39.33,39.33,0,0,1,2.5-14.42,30.56,30.56,0,0,1,7.1-10.91,31.34,31.34,0,0,1,10.94-6.91A39.66,39.66,0,0,1,198.9,120.71Zm0,54.64q7,0,10.26-4.91t3.29-14.95q0-10-3.29-14.91t-10.26-4.89q-7.16,0-10.48,4.89t-3.32,14.91q0,10,3.32,14.95T198.9,175.35Z" transform="translate(-17.62 -33.12)"/></g><path class="cls-4" d="M180.54,128.93c1.4-14.8,7.6-23.9,19.5-23.8,11.4.1,16.7,9.3,17.5,23.3.1,1.6,1.8,3.1,2.8,4.6.8-1.6,2.3-3.3,2.2-4.9-.6-14.8-11.5-28.3-22.7-28.4-11.4-.1-24.4,14.6-24.9,28.8-.1,1.5,1.6,3.1,2.4,4.7C178.54,131.83,180.34,130.53,180.54,128.93Z" transform="translate(-17.62 -33.12)"/></g></g></svg>